<?xml version="1.0" encoding="UTF-8"?>
<svg id="Layer_2" data-name="Layer 2" xmlns="http://www.w3.org/2000/svg" viewBox="0 0 157.68 35.06">
  <defs>
    <style>
      .cls-1 {
        fill: #231f20;
      }
    </style>
  </defs>
  <g id="Layer_1-2" data-name="Layer 1">
    <g>
      <path class="cls-1" d="M12.04,34.02c5.71,0,11.28-2.28,11.28-6.52C23.31,18.84.48,20.65.48,8.8.48,2.76,6.23,0,12.04,0c6.19,0,12.47,3.04,12.23,8.52-1-5.14-5.8-7.37-10.47-7.37-4.95,0-9.75,2.47-9.75,6.52,0,8.71,23.41,5.52,23.41,17.84,0,6.57-7.04,9.56-13.99,9.56S0,32.16,0,27.02c0-.57.09-1.09.24-1.71-.62,6,5.66,8.71,11.8,8.71Z"/>
      <path class="cls-1" d="M65.94,33.97h-4.81l-1.9-3.71c-2.76-4.66-9.04-9.18-14.65-9.18-2.62,0-5.09,1.05-6.95,3.52,1.62-2.95,4.19-4.09,7.09-4.09,4.33,0,9.37,2.71,12.75,6.28l-10.85-21.36-10.37,20.51c-1.09,2.19-1.48,3.95-1.48,5.23,0,1.43.48,2.28.9,2.43.19.05.19.38.19.38h-4.52L48.25.67h.81l16.89,33.3Z"/>
      <path class="cls-1" d="M71.56.67h4.38v33.3h-4.38V.67Z"/>
      <path class="cls-1" d="M106.15,33.97h-22.22V.67h4.38v32.54h6.19c8.71,0,12.32-2.09,12.61-2.86.1-.14.38-.14.38-.14l-1.33,3.76Z"/>
      <path class="cls-1" d="M113.1.67h4.38v33.3h-4.38V.67Z"/>
      <path class="cls-1" d="M157.68,33.97h-4.81l-1.9-3.71c-2.76-4.66-9.04-9.18-14.65-9.18-2.62,0-5.09,1.05-6.95,3.52,1.62-2.95,4.19-4.09,7.09-4.09,4.33,0,9.37,2.71,12.75,6.28l-10.85-21.36-10.37,20.51c-1.09,2.19-1.47,3.95-1.47,5.23,0,1.43.48,2.28.9,2.43.19.05.19.38.19.38h-4.52L139.98.67h.81l16.89,33.3Z"/>
    </g>
  </g>
</svg>