<?xml version="1.0" encoding="UTF-8"?>
<svg id="Layer_2" data-name="Layer 2" xmlns="http://www.w3.org/2000/svg" viewBox="0 0 250.64 354.83">
  <g id="Layer_1-2" data-name="Layer 1">
    <g>
      <path d="M137,289.5l-115.53-.3L137,0v289.5ZM129.5,282V39l-94.5,243h94.5Z"/>
      <path d="M143.75,290l-.25-227.5,103.48,226.27c.43.77-2.11,1.23-2.23,1.23h-101ZM233,282l-81.25-181.51.25,181.51h81Z"/>
      <path d="M37.5,303.5v14l-3.95-.05c-.53-3.41-2.52-6.89-5.3-8.95-9.23-6.83-23.99,1.95-11.71,10.21,8.44,5.68,23.46,8.06,23.4,20.99s-15.26,16.58-25.97,14.58c-1.98-.37-6.4-2.24-7.74-2.23-1.84.02-3.85,3.83-6.24,1.2v-15.25l4.48.02c1.52,8.5,8.11,13.43,16.77,12.48,7.61-.83,9.1-8.94,2.92-13.42-7.87-5.7-22.98-7.26-23.63-19.91-.61-11.86,11.94-15.93,21.7-15.16,2.94.23,8.46,2.57,10.02,2.54,1.35-.03,3.25-1.83,5.24-1.04Z"/>
      <path d="M197.5,353.5l.08-2.42c6.23-1.6,7.92-10.06,10.16-15.59,3.14-7.75,5.74-15.73,9.16-23.37l-.89-5.1,11.2-3.05,17.69,43.39c.5.85,1.31,1.84,2.12,2.37,2.13,1.4,4.18.32,3.48,3.77h-23.5l.06-2.44c7.49-.81,2.13-7.09.96-11.34l-17.08.07c-.35,2.69-4.39,8.15-1.15,10.15,1.91,1.19,4.37-.47,3.7,3.55h-16ZM213,335h13c-1.64-5.11-3.49-10.66-5.78-15.5-.28-.59.07-1.22-.97-1.01l-6.26,16.5Z"/>
      <path d="M42,353.5c-.69-3.44,1.79-2.66,3.77-4.48,5.36-4.93,10.89-29.71,15.5-37.01l-.56-4.52,10.49-3.52,16.88,41.72c1.59,3.22,2.27,5.01,6.38,5.37l.05,2.45h-23l.05-2.45c1.74-.23,3.87-.62,3.9-2.79,0-.74-2.5-7.28-2.99-7.97-.56-.78-.81-.72-1.68-.82-3.18-.37-9.74-.24-13.05,0-.73.05-2.13.1-2.61.65-.73.84-2.35,6.83-2.12,8.1.69,3.78,6.1.52,5,5.27h-16ZM70.5,335l-6.75-17.01-6.25,17.01h13Z"/>
      <path d="M126,353.5c-.62-3.8,1.57-2.55,3.65-3.6,1.76-.89,1.74-2.89,1.87-4.63.61-7.92.85-24.8-.08-32.46-.14-1.14-.51-2.86-1.39-3.61-1.86-1.57-5.03.24-3.99-3.64,1.05-.23,2.08-.5,3.17-.58,4.77-.33,14.48-.55,19.04,0,1.74.21,2.5,1.69,1.51,3.06-.9,1.25-5.13-1.1-5.78,4.71-.89,7.85-.7,25.47-.02,33.52.34,4.04,2.66,3.44,6.29,3.25,7.87-.41,10.82-4.22,12.8-11.45l3.93-.07-.5,15.5h-40.5Z"/>
      <path d="M193,305l-.22,3.03c-.67.96-3.72-.14-4.25,3.25.8,11.52-1.16,24.68-.06,36,.53,5.43,5.95,1.2,5.03,6.22h-23l.22-2.53c.9-1.26,4.34.94,4.81-4.19-1.1-10.87,1.41-24.45-.05-34.99-.45-3.24-2.22-3.09-4.91-3.84l.69-2.94h21.75Z"/>
      <path d="M119,305l-.21,3.04c-.51.74-3.17.04-4.02,1.98l-.26,38.74c.51,2.8,5.68.3,4.5,4.75h-22.5l.22-2.53c4.19-.7,4.52-1.58,4.8-5.69.75-10.66-.56-22.22-.07-32.98-.15-1.06-.73-2.76-1.67-3.33-2.04-1.24-3.93.52-3.29-3.96h22.5Z"/>
    </g>
  </g>
</svg>